<svg xmlns="http://www.w3.org/2000/svg" version="1.1" xmlns:xlink="http://www.w3.org/1999/xlink" xmlns:svgjs="http://svgjs.dev/svgjs" width="1500" height="1202" viewBox="0 0 1500 1202"><g transform="matrix(1,0,0,1,1.1113207180317204,0.48663967611332737)"><svg viewBox="0 0 308 247" data-background-color="#5e1914" preserveAspectRatio="xMidYMid meet" height="1202" width="1500" xmlns="http://www.w3.org/2000/svg" xmlns:xlink="http://www.w3.org/1999/xlink"><g id="tight-bounds" transform="matrix(1,0,0,1,-0.22819118743584,-0.09999999999999432)"><svg viewBox="0 0 308.4563823748717 247.2" height="247.2" width="308.4563823748717"><g><svg viewBox="0 0 395.52 316.97364550290143" height="247.2" width="308.4563823748717"><g transform="matrix(1,0,0,1,0,224.416410745678)"><svg viewBox="0 0 395.52 92.55723475722341" height="92.55723475722341" width="395.52"><g id="textblocktransform"><svg viewBox="0 0 395.52 92.55723475722341" height="92.55723475722341" width="395.52" id="textblock"><g><svg viewBox="0 0 395.52 49.92094971145919" height="49.92094971145919" width="395.52"><g transform="matrix(1,0,0,1,0,0)"><svg width="395.52" viewBox="5.25 -36.89 296.12 37.38" height="49.92094971145919" data-palette-color="#ed1703"><path d="M39.18-19.31L39.18-5.03Q34.13 0.49 24.73 0.49L24.73 0.49Q20.73 0.49 17.42-0.55 14.11-1.59 11.89-3.31 9.67-5.03 8.14-7.35 6.62-9.67 5.93-12.17 5.25-14.67 5.25-17.31L5.25-17.31Q5.25-20.07 6.01-22.63 6.76-25.2 8.36-27.44 9.96-29.69 12.22-31.36 14.48-33.03 17.68-34 20.87-34.96 24.66-34.96L24.66-34.96Q31.57-34.96 37.08-31.88L37.08-31.88 37.94-31.4 35.38-26.56 34.5-27.03Q32.76-27.91 30.15-28.6 27.54-29.3 24.9-29.3L24.9-29.3Q22.31-29.3 19.9-28.49 17.48-27.69 15.59-26.22 13.7-24.76 12.56-22.5 11.43-20.24 11.43-17.55L11.43-17.55Q11.43-14.01 13.28-11.18 15.14-8.35 18.42-6.77 21.7-5.2 25.81-5.2L25.81-5.2Q30.3-5.2 33.15-7.23L33.15-7.23 33.15-13.89 22.29-13.89 22.29-19.31 39.18-19.31ZM51.24-24.12L51.95-22.83Q55.76-24.58 60.08-24.58L60.08-24.58Q62.84-24.58 65.11-23.54L65.11-23.54 65.96-23.14 64.06-18.14 63.11-18.51Q61.4-19.17 59.4-19.17L59.4-19.17Q56.2-19.17 53.24-18.02L53.24-18.02 53.24 0 47.24 0 47.24-24.12 51.24-24.12ZM82.91-24.58L82.91-24.58Q88.96-24.58 92.66-21.4 96.36-18.21 96.36-12.5L96.36-12.5Q96.36-6.49 92.59-3 88.81 0.49 82.44 0.49L82.44 0.49Q76.39 0.49 72.76-2.8 69.14-6.08 69.14-11.82L69.14-11.82Q69.14-17.7 72.83-21.14 76.53-24.58 82.91-24.58ZM82.51-19.17L82.51-19.17Q80.63-19.17 78.97-18.46 77.31-17.75 76.18-16.16 75.04-14.58 75.04-12.43L75.04-12.43Q75.04-9.25 77.24-7.09 79.44-4.93 82.95-4.93L82.95-4.93Q86.15-4.93 88.3-6.81 90.45-8.69 90.45-11.79L90.45-11.79Q90.45-13.57 89.74-15.03 89.03-16.48 87.89-17.36 86.74-18.24 85.35-18.7 83.95-19.17 82.51-19.17ZM116.47-24.58L116.47-24.58Q122.53-24.58 126.23-21.4 129.92-18.21 129.92-12.5L129.92-12.5Q129.92-6.49 126.15-3 122.38 0.49 116.01 0.49L116.01 0.49Q109.95 0.49 106.33-2.8 102.7-6.08 102.7-11.82L102.7-11.82Q102.7-17.7 106.4-21.14 110.1-24.58 116.47-24.58ZM116.08-19.17L116.08-19.17Q114.2-19.17 112.54-18.46 110.88-17.75 109.75-16.16 108.61-14.58 108.61-12.43L108.61-12.43Q108.61-9.25 110.81-7.09 113.01-4.93 116.52-4.93L116.52-4.93Q119.72-4.93 121.87-6.81 124.02-8.69 124.02-11.79L124.02-11.79Q124.02-13.57 123.31-15.03 122.6-16.48 121.45-17.36 120.31-18.24 118.91-18.7 117.52-19.17 116.08-19.17ZM154.29-24.12L160.59-24.12 151.09 0 144.62 0 134.68-24.12 141.62-24.12 148.01-6.35 154.29-24.12ZM178.48-24.58L178.48-24.58Q180.58-24.58 182.25-24.13 183.92-23.68 185.01-22.99 186.1-22.29 186.89-21.18 187.68-20.07 188.1-19.06 188.51-18.04 188.74-16.63 188.98-15.21 189.03-14.23 189.07-13.26 189.07-11.91L189.07-11.91 189.07-9.18 170.93-9.18Q171.45-7.37 173.84-6.04 176.23-4.71 180.14-4.71L180.14-4.71Q182.9-4.71 185.75-5.54L185.75-5.54 186.76-5.83 187.95-1.2 187.07-0.9Q183 0.49 178.38 0.49L178.38 0.49Q175.16 0.49 172.67-0.22 170.18-0.93 168.68-2.05 167.18-3.17 166.21-4.76 165.25-6.35 164.88-7.93 164.51-9.52 164.51-11.33L164.51-11.33Q164.51-14.01 165.28-16.25 166.05-18.48 167.38-20.01 168.71-21.53 170.51-22.58 172.3-23.63 174.3-24.11 176.31-24.58 178.48-24.58ZM177.48-19.12L177.48-19.12Q174.67-19.12 172.99-17.71 171.3-16.31 170.98-14.21L170.98-14.21 183.17-14.21Q182.97-16.85 181.51-17.98 180.04-19.12 177.48-19.12ZM231.43-19.31L231.43-5.03Q226.38 0.49 216.98 0.49L216.98 0.49Q212.97 0.49 209.67-0.55 206.36-1.59 204.14-3.31 201.91-5.03 200.39-7.35 198.86-9.67 198.18-12.17 197.49-14.67 197.49-17.31L197.49-17.31Q197.49-20.07 198.25-22.63 199.01-25.2 200.61-27.44 202.21-29.69 204.46-31.36 206.72-33.03 209.92-34 213.12-34.96 216.9-34.96L216.9-34.96Q223.81-34.96 229.33-31.88L229.33-31.88 230.19-31.4 227.62-26.56 226.74-27.03Q225.01-27.91 222.4-28.6 219.78-29.3 217.15-29.3L217.15-29.3Q214.56-29.3 212.14-28.49 209.73-27.69 207.83-26.22 205.94-24.76 204.81-22.5 203.67-20.24 203.67-17.55L203.67-17.55Q203.67-14.01 205.53-11.18 207.38-8.35 210.67-6.77 213.95-5.2 218.05-5.2L218.05-5.2Q222.54-5.2 225.4-7.23L225.4-7.23 225.4-13.89 214.54-13.89 214.54-19.31 231.43-19.31ZM243.49-24.12L244.2-22.83Q248-24.58 252.33-24.58L252.33-24.58Q255.09-24.58 257.36-23.54L257.36-23.54 258.21-23.14 256.31-18.14 255.35-18.51Q253.64-19.17 251.64-19.17L251.64-19.17Q248.44-19.17 245.49-18.02L245.49-18.02 245.49 0 239.48 0 239.48-24.12 243.49-24.12ZM262.24-28.08L262.24-34.69 268.97-34.69 268.97-28.08 262.24-28.08ZM262.6 0L262.6-24.12 268.61-24.12 268.61 0 262.6 0ZM276.17-11.67L276.17-11.67Q276.17-17.87 279.85-21.24 283.52-24.61 289.67-24.61L289.67-24.61Q292.53-24.61 295.36-23.78L295.36-23.78 295.36-36.89 301.37-36.89 301.37 0 296.93 0 296.44-1.12Q292.9 0.49 288.87 0.49L288.87 0.49Q286.96 0.49 285.21 0.11 283.45-0.27 281.78-1.17 280.1-2.08 278.88-3.43 277.66-4.79 276.92-6.91 276.17-9.03 276.17-11.67ZM290.41-4.81L290.41-4.81Q292.95-4.81 295.36-5.66L295.36-5.66 295.36-18.73Q292.78-19.46 290.36-19.46L290.36-19.46Q289.26-19.46 288.23-19.3 287.21-19.14 286.05-18.66 284.89-18.19 284.05-17.43 283.21-16.67 282.64-15.33 282.08-13.99 282.08-12.26L282.08-12.26Q282.08-10.5 282.63-9.13 283.18-7.76 284.04-6.97 284.89-6.18 286.05-5.66 287.21-5.15 288.26-4.98 289.31-4.81 290.41-4.81Z" opacity="1" transform="matrix(1,0,0,1,0,0)" fill="#ed1703" class="wordmark-text-0" data-fill-palette-color="primary" id="text-0"></path></svg></g></svg></g><g transform="matrix(1,0,0,1,0,61.706087835541624)"><svg viewBox="0 0 395.52 30.85114692168178" height="30.85114692168178" width="395.52"><g transform="matrix(1,0,0,1,0,0)"><svg width="395.52" viewBox="-2.85 -41 537.8100000000001 41.95" height="30.85114692168178" data-palette-color="#ff908b"><path d="M28.3 0L18.7 0 18.15-7.1 9.1-7.1 6.65 0-2.85 0 12.1-34.75 23.1-34.75 28.3 0ZM16.55-28.75L11.35-13.7 17.7-13.7 16.55-28.75ZM57.26-38.05L53.01-7.75Q52.81-6.1 54.01-6.1L54.01-6.1Q54.36-6.1 55.16-6.3L55.16-6.3 56.11-0.1Q54.96 0.4 53.51 0.68 52.06 0.95 50.66 0.95L50.66 0.95Q47.51 0.95 45.78-0.7 44.06-2.35 44.06-5.5L44.06-5.5Q44.06-6.35 44.21-7.3L44.21-7.3 48.41-37.15 57.26-38.05ZM85.22-38.05L80.97-7.75Q80.77-6.1 81.97-6.1L81.97-6.1Q82.32-6.1 83.12-6.3L83.12-6.3 84.07-0.1Q82.92 0.4 81.47 0.68 80.02 0.95 78.62 0.95L78.62 0.95Q75.47 0.95 73.74-0.7 72.02-2.35 72.02-5.5L72.02-5.5Q72.02-6.35 72.17-7.3L72.17-7.3 76.37-37.15 85.22-38.05ZM139.63-27.55Q142.53-27.55 145.46-26.83 148.38-26.1 150.98-24.6L150.98-24.6 148.58-8.1Q148.48-7.2 148.48-6.95L148.48-6.95Q148.48-6.15 148.76-5.7 149.03-5.25 149.78-4.95L149.78-4.95 147.28 0.75Q144.88 0.6 143.11-0.5 141.33-1.6 140.68-3.65L140.68-3.65Q137.48 0.95 132.73 0.95L132.73 0.95Q128.58 0.95 126.31-1.93 124.03-4.8 124.03-9.8L124.03-9.8Q124.03-14.05 125.63-18.1 127.23-22.15 130.73-24.85 134.23-27.55 139.63-27.55L139.63-27.55ZM139.33-21.35Q136.13-21.35 134.61-17.8 133.08-14.25 133.08-9.8L133.08-9.8Q133.08-7.4 133.76-6.48 134.43-5.55 135.63-5.55L135.63-5.55Q138.03-5.55 140.08-8.9L140.08-8.9 141.83-20.95Q140.48-21.35 139.33-21.35L139.33-21.35ZM185.34-27.55Q189.34-27.55 191.41-24.88 193.49-22.2 193.49-17.2L193.49-17.2Q193.49-12.75 192.09-8.65 190.69-4.55 187.14-1.8 183.59 0.95 177.54 0.95L177.54 0.95Q171.89 0.95 166.19-1.45L166.19-1.45 171.19-37.15 180.04-38.05 178.14-24.5Q179.54-25.9 181.46-26.73 183.39-27.55 185.34-27.55L185.34-27.55ZM181.79-21.1Q179.39-21.1 177.29-18.25L177.29-18.25 175.59-6.05Q177.14-5.5 178.54-5.5L178.54-5.5Q180.59-5.5 181.94-7.28 183.29-9.05 183.89-11.68 184.49-14.3 184.49-16.9L184.49-16.9Q184.49-19.25 183.76-20.18 183.04-21.1 181.79-21.1L181.79-21.1ZM220.4 0.95Q215 0.95 212-2.08 209-5.1 209-10.5L209-10.5Q209-14.75 210.5-18.63 212-22.5 215.4-25.03 218.8-27.55 224.15-27.55L224.15-27.55Q229.5-27.55 232.55-24.53 235.6-21.5 235.6-16.25L235.6-16.25Q235.6-12.05 234.12-8.13 232.65-4.2 229.22-1.63 225.8 0.95 220.4 0.95L220.4 0.95ZM221.1-5.55Q224.25-5.55 225.45-9.15 226.65-12.75 226.65-16.85L226.65-16.85Q226.65-19.05 225.87-20.08 225.1-21.1 223.5-21.1L223.5-21.1Q220.35-21.1 219.15-17.57 217.95-14.05 217.95-10L217.95-10Q217.95-7.65 218.7-6.6 219.45-5.55 221.1-5.55L221.1-5.55ZM257.91 0.95Q254.76 0.95 253.13-0.8 251.51-2.55 251.51-5.65L251.51-5.65Q251.51-6.6 251.66-7.55L251.66-7.55 254.36-26.65 263.11-26.65 260.66-9.15Q260.56-8.35 260.56-8.05L260.56-8.05Q260.56-6.2 262.11-6.2L262.11-6.2Q263.96-6.2 266.31-9.75L266.31-9.75 268.66-26.65 277.41-26.65 273.71 0 266.11 0 266.26-3.65Q262.56 0.95 257.91 0.95L257.91 0.95ZM304.86-6.1Q305.96-6.1 307.61-6.85L307.61-6.85 309.86-1.1Q308.21-0.1 306.11 0.43 304.01 0.95 302.16 0.95L302.16 0.95Q298.31 0.95 296.29-1.1 294.26-3.15 294.26-7.05L294.26-7.05Q294.26-8.15 294.41-9.35L294.41-9.35 295.96-20.5 292.61-20.5 293.41-26.65 297.21-26.65 298.86-32.45 306.51-33.35 305.61-26.65 311.61-26.65 309.81-20.5 304.76-20.5 303.21-9.35Q303.11-8.45 303.11-8.15L303.11-8.15Q303.11-7.05 303.56-6.58 304.01-6.1 304.86-6.1L304.86-6.1ZM382.83-27.55Q385.63-27.55 387.2-25.88 388.78-24.2 388.78-21.2L388.78-21.2Q388.78-20.1 388.68-19.5L388.68-19.5 385.93 0 377.18 0 379.68-17.3Q379.78-18.3 379.78-18.55L379.78-18.55Q379.78-20.3 378.53-20.3L378.53-20.3Q376.43-20.3 374.08-14.55L374.08-14.55 372.08 0 363.33 0 365.78-17.3Q365.88-18.2 365.88-18.45L365.88-18.45Q365.88-19.5 365.55-19.9 365.23-20.3 364.58-20.3L364.58-20.3Q363.58-20.3 362.4-18.7 361.23-17.1 360.28-14.35L360.28-14.35 358.23 0 349.48 0 353.18-26.65 360.78-26.65 360.73-22.5Q362.28-24.9 364.4-26.23 366.53-27.55 368.93-27.55L368.93-27.55Q371.28-27.55 372.83-26.33 374.38-25.1 374.78-22.8L374.78-22.8Q376.33-25 378.48-26.28 380.63-27.55 382.83-27.55L382.83-27.55ZM411.34 0.95Q408.19 0.95 406.56-0.8 404.94-2.55 404.94-5.65L404.94-5.65Q404.94-6.6 405.09-7.55L405.09-7.55 407.79-26.65 416.54-26.65 414.09-9.15Q413.99-8.35 413.99-8.05L413.99-8.05Q413.99-6.2 415.54-6.2L415.54-6.2Q417.39-6.2 419.74-9.75L419.74-9.75 422.09-26.65 430.84-26.65 427.14 0 419.54 0 419.69-3.65Q415.99 0.95 411.34 0.95L411.34 0.95ZM458.74-27.55Q461.69-27.55 464.27-26.63 466.84-25.7 468.79-24.1L468.79-24.1 464.99-19.35Q463.59-20.3 461.97-20.8 460.34-21.3 458.79-21.3L458.79-21.3Q455.79-21.3 455.79-19.55L455.79-19.55Q455.79-18.95 456.17-18.57 456.54-18.2 457.54-17.8 458.54-17.4 460.84-16.65L460.84-16.65Q464.19-15.55 465.89-13.58 467.59-11.6 467.59-8.55L467.59-8.55Q467.59-6.05 466.37-3.9 465.14-1.75 462.39-0.4 459.64 0.95 455.39 0.95L455.39 0.95Q451.89 0.95 448.84-0.3 445.79-1.55 443.99-3.6L443.99-3.6 448.29-8.15Q451.44-5.35 455.44-5.35L455.44-5.35Q457.04-5.35 457.99-5.93 458.94-6.5 458.94-7.5L458.94-7.5Q458.94-8.2 458.54-8.65 458.14-9.1 457.14-9.53 456.14-9.95 453.79-10.8L453.79-10.8Q450.39-12 448.74-13.88 447.09-15.75 447.09-18.7L447.09-18.7Q447.09-21.15 448.47-23.15 449.84-25.15 452.47-26.35 455.09-27.55 458.74-27.55L458.74-27.55ZM486.9-26.65L495.65-26.65 491.95 0 483.2 0 486.9-26.65ZM492-31.2Q489.95-31.2 488.73-32.4 487.5-33.6 487.5-35.5L487.5-35.5Q487.5-37.85 489.13-39.43 490.75-41 493.15-41L493.15-41Q495.2-41 496.43-39.8 497.65-38.6 497.65-36.7L497.65-36.7Q497.65-34.35 496.03-32.77 494.4-31.2 492-31.2L492-31.2ZM526.21-27.55Q531.51-27.55 534.96-24L534.96-24 530.71-18.95Q528.71-20.8 526.26-20.8L526.26-20.8Q522.86-20.8 521.46-17.65 520.06-14.5 520.06-10.45L520.06-10.45Q520.06-8 521.04-7.03 522.01-6.05 523.86-6.05L523.86-6.05Q525.11-6.05 526.24-6.48 527.36-6.9 528.86-7.85L528.86-7.85 532.06-2.2Q527.71 0.95 522.66 0.95L522.66 0.95Q517.11 0.95 513.99-2.2 510.86-5.35 510.86-10.7L510.86-10.7Q510.86-14.5 512.49-18.4 514.11-22.3 517.56-24.93 521.01-27.55 526.21-27.55L526.21-27.55Z" opacity="1" transform="matrix(1,0,0,1,0,0)" fill="#ff908b" class="slogan-text-1" data-fill-palette-color="secondary" id="text-1"></path></svg></g></svg></g></svg></g></svg></g><g transform="matrix(1,0,0,1,91.4443636892022,0)"><svg viewBox="0 0 212.63127262159557 212.63127262159557" height="212.63127262159557" width="212.63127262159557"><g><svg></svg></g><g id="icon-0"><svg viewBox="0 0 212.63127262159557 212.63127262159557" height="212.63127262159557" width="212.63127262159557"><g><rect width="193.33695343926559" height="193.33695343926559" x="9.647159591164993" y="9.647159591164993" fill="#ff908b" data-fill-palette-color="accent"></rect><rect width="193.33695343926559" height="193.33695343926559" x="8.881784197001252e-15" y="19.29431918232998" fill="#ff908b" opacity="0.5" data-fill-palette-color="accent"></rect></g><g transform="matrix(1,0,0,1,48.92419706017181,27.563313117614243)"><svg viewBox="0 0 114.78287850125196 157.50464638636709" height="157.50464638636709" width="114.78287850125196"><g><svg xmlns="http://www.w3.org/2000/svg" xmlns:xlink="http://www.w3.org/1999/xlink" version="1.1" x="0" y="0" viewBox="19.82139853252198 2.752026996928024 68.86405396413436 94.49500317448808" style="enable-background:new 0 0 100 100;" xml:space="preserve" height="157.50464638636709" width="114.78287850125196" class="icon-cg-0" data-fill-palette-color="quaternary" id="cg-0"><path class="" d="M83.574 10.681c-0.476-0.436-0.363-0.77-0.1-1.205 0.292-0.484 0.544-0.988 1.078-1.282 0.201-0.111 0.393-0.308 0.375-0.514-0.047-0.521 0.247-0.748 0.655-0.988 0.401-0.236 0.455-0.623 0.092-0.829-0.56-0.318-0.3-0.502 0.029-0.697 0.683-0.405 1.399-0.759 2.065-1.186 0.37-0.237 1.082-0.406 0.883-0.924-0.198-0.516-0.847-0.239-1.293-0.147-1.335 0.276-2.526 0.883-3.637 1.629-0.576 0.387-1.117 0.818-1.553 1.375-0.796 1.018-1.574 2.039-2.009 3.264-0.143 0.403-0.384 0.659-0.847 0.792-0.638 0.184-0.884 0.586-0.669 1.224 0.196 0.583-0.089 0.928-0.358 1.354-1.28 2.027-5.207 8.036-6.182 9.614-1.149 1.861-2.591 3.46-4.184 4.934-0.697 0.645-1.479 0.989-2.408 0.413-0.147-0.091-0.328-0.132-0.496-0.185-0.814-0.257-1.132-0.169-1.649 0.509-0.366 0.48-0.668 0.993-0.851 1.584-0.24 0.772-0.261 0.752-0.867 0.289-1.075-0.822-1.986-1.822-2.99-2.72-1.461-1.309-1.402-3.007-1.337-4.724 0.004-0.097 0.063-0.201 0.121-0.286 0.813-1.186 0.584-2.447 0.183-3.671-0.353-1.076-1.333-1.632-2.489-1.632-0.557 0-1.07 0.161-1.52 0.428-0.997 0.592-1.955 0.848-3.101 0.327-0.652-0.296-1.163 0.207-1.148 0.95 0.017 0.866 0.552 1.42 1.162 1.94 0.202 0.173 0.614 0.107 0.619 0.477 0.004 0.279-0.049 0.571-0.136 0.837-0.144 0.437-0.33 0.861-0.51 1.285-0.194 0.458-0.396 0.917-0.459 1.412-0.058 0.46-0.107 0.984 0.32 1.282 0.9 0.627 1.577 1.528 2.593 2.012 0.736 0.35 1.148 1.036 1.544 1.712 0.144 0.246 0.225 0.5 0.091 0.805-0.424 0.964-0.729 1.976-1.516 2.756-0.522 0.516-0.772 0.601-1.336 0.114-0.295-0.254-0.538-0.568-0.828-0.827-0.492-0.439-0.905-0.451-1.44-0.086-0.375 0.256-0.558 0.632-0.669 1.053-0.25 0.946-0.465 1.16-1.364 0.94-1.618-0.394-3.186-0.047-4.732 0.275-2.376 0.495-4.592 1.445-6.634 2.779-1.009 0.659-2.094 1.224-2.831 2.221-1.207 1.635-2.199 3.393-2.952 5.283-0.635 1.593-0.989 3.254-1.144 4.955-0.053 0.58-0.318 0.918-0.852 1.077-0.306 0.091-0.623 0.149-0.919 0.266-0.566 0.223-0.851 0.662-0.764 1.135 0.097 0.529 0.532 0.635 0.958 0.687 0.673 0.082 1.354 0.008 1.997-0.169 0.457-0.126 0.759-0.004 1.045 0.292 0.443 0.456 0.716 0.957 0.458 1.626-0.096 0.249-0.309 0.602-0.014 0.783 0.416 0.255 0.352 0.552 0.226 0.885-0.344 0.902 0.789 0.852 0.927 1.453 0.047 0.205 0.262 0.352 0.486 0.362 0.169 0.008 0.356-0.032 0.509-0.104 1.277-0.601 2.044-1.636 2.331-2.986 0.184-0.866 0.054-1.701-0.763-2.278-0.434-0.307-0.835-0.659-1.267-0.97-0.58-0.417-0.921-1.412-0.732-2.109 0.329-1.209 1.065-2.125 1.943-2.992 2.871-2.838 6.324-4.215 10.334-4.311 1.064-0.025 1.72 0.516 2.202 1.368 0.174 0.308 0.308 0.64 0.443 0.968 0.697 1.698 0.85 3.412 0.244 5.185-0.381 1.116-1.311 1.626-2.195 2.208-0.159 0.105-0.338 0.034-0.514 0.011-1.784-0.236-3.704 0.893-4.318 2.572-0.268 0.731-0.451 1.494-0.673 2.242-0.222 0.746-0.329 1.535-0.741 2.213-0.719 1.184-1.473 2.347-2.413 3.371-2.111 2.3-4.242 4.582-6.352 6.883-2.792 3.044-5.298 6.295-7.196 9.984-0.633 1.23-1.281 2.453-1.88 3.699-0.88 1.831-1.5 3.748-1.811 5.762-0.075 0.487 0.038 0.963 0.319 1.304 0.348 0.422 0.413 0.757 0.109 1.204-0.116 0.17-0.165 0.393-0.211 0.6-0.15 0.668 0.308 1.104 0.984 0.933 0.315-0.08 0.564-0.286 0.812-0.49 0.487-0.4 0.525-0.414 0.827 0.121 0.862 1.524 2.176 2.609 3.524 3.653 0.388 0.3 0.876 0.878 1.384 0.384 0.456-0.443 0.026-1.008-0.235-1.45-0.405-0.684-0.569-1.449-0.834-2.18-0.129-0.356 0.018-0.453 0.346-0.417 0.882 0.097 1.765 0.181 2.645 0.292 0.836 0.105 1.618-0.029 2.373-0.408 0.548-0.276 0.852-0.635 0.932-1.294 0.174-1.441 0.37-2.882 0.56-4.322 0.614-4.643 2.519-8.772 4.91-12.713 1.638-2.699 3.45-5.289 5.041-8.019 0.607-1.042 1.301-2.033 1.924-3.066 0.326-0.542 0.761-0.703 1.347-0.557 0.241 0.06 0.481 0.123 0.723 0.18 0.673 0.159 1.337 0.21 1.948-0.204 0.472-0.319 0.869-0.169 1.243 0.178 0.522 0.484 1.004 1.002 1.396 1.6 1.372 2.089 2.28 4.405 3.251 6.688 0.316 0.743 0.278 1.528-0.013 2.286-0.447 1.166-1.032 2.279-1.786 3.255-2.18 2.821-4.085 5.797-5.478 9.086-0.761 1.797-1.505 3.603-2.012 5.493-0.208 0.776-0.04 1.038 0.712 1.252 0.583 0.166 1.19 0.183 1.788 0.255 0.709 0.084 0.722 0.121 0.81 0.829 0.088 0.704 0.203 0.801 0.919 0.924 0.647 0.111 1.197-0.105 1.694-0.47 0.418-0.307 0.775-0.276 1.142 0.059 0.157 0.143 0.318 0.286 0.491 0.408 1.715 1.202 3.462 2.344 5.499 2.946 0.402 0.119 0.854 0.394 1.163-0.059 0.294-0.431-0.099-0.789-0.315-1.142-0.055-0.09-0.125-0.174-0.202-0.247-0.619-0.588-1.179-1.228-1.7-1.905-0.279-0.362-0.961-0.674-0.85-1.002 0.145-0.427 0.836-0.321 1.309-0.39 0.795-0.116 1.504-0.371 1.938-1.133 0.491-0.862 1.02-1.701 1.326-2.657 0.281-0.877 0.598-1.744 0.907-2.612 0.642-1.804 1.293-3.604 1.933-5.408 0.549-1.549 0.654-3.188 0.979-4.783 0.293-1.438 0.386-2.925 0.278-4.336-0.134-1.763-0.667-3.485-1.764-5.027-1.265-1.778-2.735-3.338-4.273-4.855-1.011-0.997-2.052-1.963-3.034-2.987-0.621-0.647-0.603-1.004 0.013-1.644 0.47-0.488 0.924-0.991 1.291-1.553 0.307-0.47 0.693-0.559 1.18-0.459 0.242 0.05 0.496 0.094 0.714 0.201 1.153 0.567 2.4 0.848 3.614 1.229 0.616 0.193 1.236 0.319 1.815 0.281 1.503 0.074 2.749-0.341 3.629-1.522 1.007-1.352 1.73-2.847 2.041-4.519 0.327-1.758 0.212-3.538 0.226-5.309 0.01-1.169-0.207-2.325-0.368-3.482-0.206-1.483-0.655-2.905-1.11-4.319-0.212-0.658-0.081-1.064 0.451-1.433 0.439-0.304 0.84-0.666 1.15-1.1 0.97-1.359 1.849-2.775 2.573-4.284 0.629-1.311 1.243-2.631 1.918-3.918 1.525-2.908 0.804-1.804 2.252-4.743 1.488-3.02 2.895-6.009 3.697-9.005 0.126-0.471 0.119-0.689 0.68-0.603 0.351 0.054 0.69-0.117 0.982-0.32C83.922 11.628 84.058 11.125 83.574 10.681zM86.963 3.435c0.27-0.084 0.545-0.181 0.84-0.139-0.073 0.371-0.452 0.351-0.694 0.497-0.783 0.474-1.676 0.777-2.32 1.463-0.476 0.507-0.47 0.573 0.176 0.92 0.077 0.041 0.219 0.035 0.201 0.141-0.011 0.065-0.129 0.124-0.21 0.166-0.141 0.073-0.294 0.122-0.435 0.195-0.276 0.142-0.504 0.31-0.251 0.648 0.182 0.244 0.052 0.445-0.154 0.54-0.573 0.265-0.794 0.786-1.069 1.273-0.548 0.973-0.542 0.933-1.627 0.809-1.185-0.136-1.115-0.193-0.58-1.152 0.122-0.218 0.242-0.438 0.363-0.657C82.365 5.697 84.385 4.242 86.963 3.435zM49.845 18.516c-0.105-0.558 0.173-0.793 0.72-0.602 0.267 0.093 0.533 0.193 0.79 0.31 0.57 0.259 1.105 0.198 1.606-0.161 0.44-0.315 0.942-0.496 1.45-0.645 1.548-0.453 2.662 0.288 2.878 1.89 0.038 0.28 0.078 0.56 0.112 0.801-0.052 0.39-0.098 0.741-0.147 1.091-0.032 0.23-0.145 0.393-0.384 0.448-0.546 0.127-0.934 0.483-1.292 0.886-0.282 0.317-0.367 0.171-0.429-0.167-0.07-0.381-0.167-0.763-0.309-1.122-0.414-1.049-1.139-1.464-2.261-1.325-0.245 0.03-0.485 0.112-0.73 0.131C50.95 20.123 50.009 19.394 49.845 18.516zM51.125 24.927c-0.066 0.133-0.172 0.243-0.324 0.21-0.138-0.03-0.26-0.142-0.272-0.291-0.058-0.724 0.165-1.381 0.514-2.001 0.05-0.089 0.163-0.16 0.262-0.099 0.078 0.048 0.146 0.148 0.169 0.238 0.035 0.134 0.026 0.278 0.037 0.438C51.432 23.925 51.362 24.447 51.125 24.927zM53.026 26.851c-0.245-0.141-0.474-0.311-0.706-0.474-0.85-0.596-0.804-0.588-0.501-1.631 0.264-0.91 0.465-1.827-0.138-2.75-0.415-0.635 0.022-1.371 0.76-1.472 1.173-0.161 1.614 0.096 2 1.213 0.126 0.366 0.199 0.751 0.28 1.131 0.055 0.254 0.138 0.495 0.396 0.585 0.328 0.114 0.526-0.123 0.714-0.337 0.093-0.106 0.166-0.23 0.256-0.339 0.135-0.164 0.278-0.358 0.516-0.303 0.278 0.064 0.212 0.328 0.222 0.526 0.014 0.283 0.004 0.567 0.004 0.981-0.189 1.268 0.434 2.361 1.369 3.292 1.128 1.123 2.316 2.187 3.469 3.286 0.799 0.761 0.881 1.165 0.479 2.159-0.342 0.848-0.926 1.188-1.906 1.225-1.016 0.038-1.785-0.463-2.435-1.118-0.795-0.803-1.502-1.695-2.224-2.567-0.15-0.181-0.199-0.447-0.295-0.673C54.808 28.445 54.119 27.483 53.026 26.851zM54.82 30.714c0.139-0.126 0.263-0.041 0.372 0.045 0.252 0.199 0.468 0.429 0.613 0.723 1.192 2.41 2.005 4.913 1.89 7.646-0.005 0.127 0.03 0.266-0.137 0.418-0.555-2.551-1.705-4.817-2.962-7.038C54.392 32.147 54.544 30.965 54.82 30.714zM27.905 52.176c-0.054-0.009-0.161-0.014-0.26-0.044-0.127-0.039-0.295-0.073-0.274-0.246 0.01-0.083 0.11-0.195 0.193-0.224 0.629-0.222 1.213-0.601 1.886-0.664 0.807-0.075 1.609-0.167 2.404-0.316 0.139-0.026 0.269-0.05 0.411 0.012 0.259 0.114 0.331 0.447 0.089 0.586-0.333 0.191-0.684 0.412-1.051 0.471C30.194 51.929 29.073 52.035 27.905 52.176zM32.919 52.001c0.674 0.345 1.226 0.839 1.727 1.394 0.256 0.284 0.261 0.647 0.267 1.009-0.049 1.313-0.645 2.286-1.814 2.902-0.13 0.069-0.269 0.102-0.388-0.019-0.125-0.127-0.059-0.265 0.009-0.386 0.139-0.247 0.3-0.481 0.432-0.731 0.088-0.168 0.087-0.357-0.096-0.463-0.126-0.073-0.268-0.025-0.396 0.06-0.291 0.193-0.555 0.812-0.727 0.651-0.347-0.326 0.157-0.721 0.264-1.1 0.041-0.143 0.077-0.351-0.052-0.383-0.715-0.178-0.462-0.685-0.445-1.141 0.015-0.404-0.21-0.743-0.432-1.066-0.166-0.242-0.12-0.396 0.175-0.432 0.259-0.032 0.463-0.166 0.672-0.3C32.383 51.824 32.646 51.862 32.919 52.001zM46.042 52.853c0.019-0.287 0.166-0.441 0.406-0.564 2.583-1.323 2.89-4.302 2.338-6.573-0.202-0.829-0.464-1.638-0.864-2.394-0.609-1.15-1.472-1.802-2.872-1.75-4.593 0.17-8.451 1.875-11.528 5.311-0.678 0.758-1.082 1.666-1.399 2.607-0.199 0.59-0.518 0.829-1.144 0.887-1.706 0.159-1.557 0.285-1.306-1.424 0.467-3.186 1.738-6.039 3.562-8.668 0.409-0.589 0.875-1.123 1.447-1.547 2.631-1.949 5.528-3.347 8.776-3.843 1.304-0.199 2.665-0.417 3.994 0.011 0.133 0.043 0.28 0.045 0.421 0.058 1.143 0.107 1.343-0.052 1.627-1.159 0.1-0.389-0.039-0.944 0.471-1.106 0.514-0.163 0.691 0.386 1.007 0.636 0.249 0.196 0.48 0.431 0.758 0.574 0.607 0.313 1.054 0.194 1.494-0.343 0.134-0.164 0.238-0.354 0.376-0.515 0.319-0.372 0.408-0.347 0.665 0.101 1.331 2.323 2.29 4.789 2.895 7.397 0.13 0.561 0.079 1.13 0.139 1.691 0.184 1.395-0.321 2.666-0.758 3.933-0.907 2.628-2.242 5.058-3.706 7.405-1.243 1.994-2.941 3.531-5.122 4.489-0.231 0.101-0.454 0.195-0.708 0.199-0.319 0.005-0.531-0.097-0.603-0.451C46.069 56.177 45.93 54.525 46.042 52.853zM21.423 92.029c-0.057 0.091-0.143 0.146-0.239 0.178-0.129 0.09-0.287 0.127-0.454 0.068-0.089-0.032-0.153-0.122-0.124-0.219 0.056-0.188 0.142-0.411 0.317-0.523 0.013-0.022 0.031-0.043 0.058-0.06 0.127-0.081 0.302-0.126 0.418-0.001 0.073 0.079 0.085 0.19 0.067 0.294C21.483 91.856 21.473 91.949 21.423 92.029zM26.884 95.452c0.046 0.078 0.039 0.152-0.039 0.174-0.056 0.016-0.143 0.003-0.187-0.033-1.279-1.053-2.57-2.094-3.434-3.547-0.047-0.079-0.153-0.181-0.051-0.258 0.063-0.047 0.19-0.009 0.288-0.009-0.002 0.019-0.004 0.037-0.006 0.056 0.52 0.088 1.039 0.185 1.56 0.262 0.295 0.044 0.552 0.13 0.681 0.423C26.125 93.483 26.345 94.532 26.884 95.452zM50.447 93.42c-0.256-0.019-0.57 0.026-0.593-0.398-0.02-0.371 0.15-0.498 0.64-0.458 0.035 0.003 0.073 0.003 0.105 0.015 0.317 0.116 0.72 0.015 0.953 0.304C51.641 92.992 50.859 93.405 50.447 93.42zM58.884 95.953c0.088 0.092 0.247 0.198 0.144 0.329-0.091 0.116-0.263 0.039-0.4 0.01-0.637-0.138-1.138-0.56-1.715-0.825-1.356-0.621-2.615-1.402-3.764-2.355-0.123-0.102-0.36-0.181-0.231-0.395 0.053-0.087 0.245-0.104 0.378-0.123 0.139-0.02 0.282-0.004 0.547-0.004 0.438 0.046 0.995 0.183 1.564 0.054 0.236-0.054 0.393 0.078 0.548 0.241C56.926 93.912 57.907 94.93 58.884 95.953zM57.486 60.38c2.169 2.041 4.325 4.09 5.972 6.611 1.007 1.542 1.375 3.248 1.47 5.034 0.099 1.852-0.164 3.68-0.496 5.496-0.539 2.944-1.591 5.725-2.708 8.487-0.545 1.347-1.042 2.71-1.695 4.015-0.513 1.026-1.273 1.521-2.396 1.664-1.307 0.167-2.607 0.27-4.127 0.165-1.936 0.239-4.026-0.297-6.145-0.41-0.141-0.007-0.28-0.041-0.419-0.07-0.341-0.071-0.467-0.224-0.324-0.597 0.293-0.76 0.515-1.548 0.81-2.307 0.872-2.25 1.858-4.447 3.008-6.572 0.799-1.476 1.768-2.827 2.818-4.124 1.106-1.366 1.927-2.894 2.543-4.524 0.386-1.021 0.361-2.071-0.135-3.092-0.713-1.467-1.39-2.952-2.091-4.425-0.598-1.257-1.34-2.421-2.309-3.429-0.944-0.983-1.228-1.047-2.495-0.533-0.311 0.126-0.62 0.151-0.937 0.09-0.243-0.047-0.481-0.121-0.719-0.19-1.616-0.469-1.988-0.336-2.87 1.137-1.021 1.704-1.998 3.436-3.026 5.135-1.065 1.76-2.173 3.494-3.255 5.243-1.364 2.207-2.567 4.504-3.553 6.9-0.811 1.973-1.247 4.068-1.59 6.171-0.211 1.293-0.423 2.586-0.499 3.902-0.071 1.234-0.561 1.628-1.831 1.732-1.79 0.147-3.536-0.165-5.279-0.498-0.8-0.153-1.589-0.363-2.385-0.536-0.528-0.115-0.988-0.361-1.454-0.631-0.849-0.492-0.974-1.234-0.841-2.096 0.181-1.17 0.625-2.248 1.141-3.304 1.167-2.389 2.261-4.81 3.564-7.136 1.559-2.783 3.539-5.224 5.675-7.555 2.253-2.458 4.553-4.873 6.821-7.319 0.97-1.046 1.741-2.245 2.448-3.475 0.555-0.965 0.673-2.085 0.908-3.156 0.24-1.092 0.579-2.123 1.442-2.899 0.68-0.61 1.447-1.01 2.386-1.037 0.447-0.013 0.678 0.143 0.624 0.613-0.053 0.457-0.146 0.913-0.153 1.371-0.02 1.279 0.131 2.545 0.391 3.796 0.186 0.892 0.783 1.24 1.641 0.949 0.674-0.229 1.29-0.597 1.865-1.014 0.363-0.264 0.622-0.248 1.039-0.033 1.287 0.664 2.688 0.575 4.056 0.33 0.595-0.107 0.931-0.2 1.333 0.468C56.108 59.394 56.893 59.822 57.486 60.38zM58.536 53.512c-0.898 0.904-1.655 1.94-2.521 2.881-0.801 0.87-1.706 1.344-2.901 1.262-0.671-0.046-1.352 0.059-2.015-0.098-0.43-0.102-0.486-0.326-0.183-0.665 0.544-0.607 1.15-1.166 1.639-1.814 1.808-2.391 3.162-5.041 4.281-7.81 0.463-1.148 0.877-2.32 1.228-3.506 0.188-0.636 0.242-1.324 0.273-1.993 0.1-2.129 0.031-4.252-0.425-6.343-0.128-0.586-0.351-1.151-0.532-1.725-0.042-0.133-0.134-0.298-0.016-0.395 0.133-0.109 0.24 0.058 0.335 0.14 0.631 0.54 1.324 0.922 2.167 1.054 1.296 0.203 2.287-0.298 2.862-1.489 0.11-0.227 0.03-0.649 0.443-0.619 0.305 0.022 0.48 0.308 0.607 0.553 0.343 0.663 0.595 1.368 0.748 2.097 0.254 1.213 0.452 2.437 0.445 3.687-0.102 2.422-0.483 4.768-1.526 7.003-0.631 1.351-1.235 2.705-2.041 3.964C60.544 51.04 59.673 52.367 58.536 53.512zM65.593 37.972c-0.111-1.485-0.317-2.957-0.984-4.325-0.236-0.484-0.5-0.93-0.865-1.328-0.188-0.205-0.316-0.469-0.443-0.72-0.038-0.074 0.018-0.196 0.031-0.296 0.093 0.026 0.214 0.024 0.274 0.084 0.504 0.498 1.071 0.961 1.37 1.615 1.243 2.719 1.35 5.539 0.67 8.416-0.022 0.095-0.106 0.175-0.161 0.262C65.643 40.442 65.684 39.204 65.593 37.972zM77.902 20.894c-1.685 3.303-1.259 2.705-3.009 5.976-0.518 0.969-1.028 1.948-1.455 2.959-0.557 1.319-1.369 2.482-2.099 3.697-0.482 0.802-1.156 1.427-1.821 2.067-0.335 0.322-0.482 0.143-0.606-0.169-0.197-0.494-0.378-0.995-0.581-1.486-0.067-0.162-0.183-0.33-0.401-0.239-0.196 0.082-0.232 0.271-0.166 0.447 0.323 0.863 0.653 1.723 0.991 2.58 1.199 3.036 1.832 6.183 1.761 9.448-0.03 1.379 0.044 2.768-0.236 4.139-0.348 1.703-1.041 3.254-2.148 4.576-0.893 1.067-2.169 1.381-3.486 1.102-1.834-0.39-3.598-1.05-5.36-1.695-0.285-0.104-0.259-0.277-0.092-0.488 0.483-0.613 1.07-1.132 1.518-1.78 1.459-2.109 2.719-4.322 3.653-6.715 0.164-0.42 0.277-0.881 0.782-1.081 0.136-0.054 0.24-0.262 0.302-0.421 0.924-2.374 1.519-4.799 1.088-7.373-0.094-0.559-0.189-1.117-0.305-1.672-0.339-1.621-1.177-2.947-2.412-4.034-0.08-0.07-0.168-0.133-0.24-0.21-0.195-0.208-0.631-0.069-0.692-0.404-0.066-0.357 0.159-0.678 0.307-0.998 0.059-0.128 0.132-0.251 0.205-0.373 0.626-1.037 0.849-1.097 1.949-0.53 1.125 0.579 2.165 0.426 3.085-0.484 1.59-1.574 3.057-3.242 4.235-5.164 1.326-2.162 5.386-8.313 6.358-10.174 0.273-0.523 0.652-0.606 1.173-0.464 0.184 0.05 0.38 0.055 0.564 0.103 0.489 0.13 0.54 0.206 0.328 0.644C80.874 13.125 79.046 18.653 77.902 20.894zM82.996 11.624c-0.227 0.123-0.477 0.239-0.729 0.19-0.966-0.188-1.926-0.406-2.828-0.6-0.316-0.154-0.367-0.444-0.16-0.63 0.046-0.041 0.104-0.072 0.16-0.101 0.772-0.403 3.056-0.135 3.648 0.428C83.418 11.225 83.395 11.407 82.996 11.624z" fill="#5e1914" data-fill-palette-color="quaternary"></path></svg></g></svg></g></svg></g></svg></g><g></g></svg></g><defs></defs></svg><rect width="308.4563823748717" height="247.2" fill="none" stroke="none" visibility="hidden"></rect></g></svg></g></svg>